<?xml version="1.0" encoding="UTF-8" standalone="no"?>
<!DOCTYPE svg PUBLIC "-//W3C//DTD SVG 1.1//EN" "http://www.w3.org/Graphics/SVG/1.1/DTD/svg11.dtd">
<svg width="100%" height="100%" viewBox="0 0 200 80" version="1.1" xmlns="http://www.w3.org/2000/svg" xmlns:xlink="http://www.w3.org/1999/xlink" xml:space="preserve" xmlns:serif="http://www.serif.com/" style="fill-rule:evenodd;clip-rule:evenodd;stroke-linejoin:round;stroke-miterlimit:2;">
    <g id="Layer1" transform="matrix(0.03251,0,0,0.03251,44.9069,-0.245295)">
        <g transform="matrix(1.48356,0,0,1.48356,-929.761,-1172.94)">
            <g transform="matrix(3.18826,0,0,2.52098,-2508.94,-1608.18)">
                <text x="866.269px" y="1535.02px" style="font-family:'Futura-Bold', 'Futura', sans-serif;font-weight:700;font-size:103.911px;fill:rgb(174,28,40);">B<tspan x="952.496px 1026.05px 1095.85px 1165.66px 1239.21px 1328.66px " y="1535.02px 1535.02px 1535.02px 1535.02px 1535.02px 1535.02px ">ETTER-</tspan></text>
            </g>
            <g transform="matrix(2.09027,0,0,2.09027,-1826.26,-935.868)">
                <g transform="matrix(125.323,0,0,125.323,2533.26,1529.85)">
                </g>
                <text x="1764.44px" y="1529.85px" style="font-family:'Futura-Bold', 'Futura', sans-serif;font-weight:700;font-size:125.323px;fill:rgb(174,28,40);">H<tspan x="1884.64px 2016.37px 2134.31px 2231.08px 2291.25px 2422.98px " y="1529.85px 1529.85px 1529.85px 1529.85px 1529.85px 1529.85px ">OUSING</tspan></text>
            </g>
        </g>
        <g transform="matrix(0.87045,0,0,0.87045,147.545,15.606)">
            <g transform="matrix(2.87871,0,0,2.87871,-3108.6,-1924.62)">
                <path d="M1460.51,1255.94L1380.86,1255.94L1380.86,1230.49L2028.5,1230.49L2028.5,1255.94L1939.62,1255.94C1882.05,1323.95 1796.06,1367.15 1700.07,1367.15C1604.07,1367.15 1518.09,1323.95 1460.51,1255.94Z" style="fill:rgb(33,70,139);"/>
            </g>
            <g transform="matrix(2.60021,0,0,2.62741,-2786.32,-1410.64)">
                <path d="M1441.23,1125.87C1409.16,1071.53 1390.75,1008.17 1390.75,940.549C1390.75,738.867 1554.49,575.126 1756.18,575.126C1957.86,575.126 2121.6,738.867 2121.6,940.549C2121.6,1008.17 2103.19,1071.53 2071.12,1125.87L1441.23,1125.87Z" style="fill:white;"/>
                <clipPath id="_clip1">
                    <path d="M1441.23,1125.87C1409.16,1071.53 1390.75,1008.17 1390.75,940.549C1390.75,738.867 1554.49,575.126 1756.18,575.126C1957.86,575.126 2121.6,738.867 2121.6,940.549C2121.6,1008.17 2103.19,1071.53 2071.12,1125.87L1441.23,1125.87Z"/>
                </clipPath>
                <g clip-path="url(#_clip1)">
                    <g transform="matrix(0.614595,0,0,0.608233,711.666,438.527)">
                        <g transform="matrix(1.67719,0,0,1.67719,-1250.85,-802.693)">
                            <path d="M1745.19,1153.09L1450.06,1153.09C1418.93,1099.48 1401.11,1037.21 1401.11,970.809C1401.11,822.636 1489.88,695.033 1617.1,638.335L1745.19,759.213L1745.19,1153.09Z" style="fill:rgb(174,28,40);"/>
                        </g>
                        <g transform="matrix(3.79123,-0.0400125,0.039806,3.77166,-5588.89,-2081.63)">
                            <path d="M1952.3,621.12L2072.9,730.912C2058.69,709.465 2041.61,689.534 2023.39,670.206C2002.91,652.014 1952.3,621.12 1952.3,621.12Z" style="fill:rgb(33,70,139);"/>
                        </g>
                        <g transform="matrix(1.75825,0,0,1.75825,-1557.98,-701.232)">
                            <path d="M1774.4,525.254L1803.37,519.266L2203.38,879.11L2201.62,911.977L1774.4,525.254Z" style="fill:rgb(174,28,40);"/>
                        </g>
                        <g transform="matrix(1.70834,0,0,1.70834,-1490.79,-585.976)">
                            <path d="M1746.58,491.702L1769.1,482.755L2217.18,892.874L2212.65,919.127L1746.58,491.702Z" style="fill:rgb(33,70,139);"/>
                        </g>
                        <g transform="matrix(1.74557,0,0,1.74557,-1801.53,-426.452)">
                            <path d="M2052.03,768.958L2065.86,755.739L2222.49,898.053L2183.52,898.252L2052.03,768.958Z" style="fill:rgb(33,70,139);"/>
                        </g>
                        <g transform="matrix(1.7707,0,0,1.7707,-1771.06,-472.504)">
                            <path d="M2044.07,763.392L2094.22,780.902L2238.14,913.919L2206.56,913.862L2044.07,763.392Z" style="fill:rgb(174,28,40);"/>
                        </g>
                        <g transform="matrix(1.74345,0,0,1.74345,-1654,-497.788)">
                            <path d="M1998.36,722.393L2046.75,740.389L2242.07,916.052L2232.38,936.857L1998.36,722.393Z" style="fill:rgb(33,70,139);"/>
                        </g>
                        <g transform="matrix(1.7275,0,0,1.7275,-1579.51,-543.44)">
                            <path d="M1999.86,722.519L2042.74,732.622L2234.08,906.595L2226.4,929.236L1999.86,722.519Z" style="fill:rgb(174,28,40);"/>
                        </g>
                        <g transform="matrix(1.83689,0,0,1.83689,-1604.62,-853.676)">
                            <path d="M1839.1,579.383L1876.3,588.719L2108.17,793.477L2123.17,834.205L1839.1,579.383Z" style="fill:rgb(174,28,40);"/>
                        </g>
                        <g transform="matrix(2.4057,0,0,2.4185,-2801.06,-1214.68)">
                            <path d="M1854.56,584.808L1877.48,585.394L2124.3,809.833L2127.1,833.923L1854.56,584.808Z" style="fill:rgb(33,70,139);"/>
                        </g>
                    </g>
                </g>
            </g>
            <g transform="matrix(2.66052,0,0,2.40313,-2956.38,-1140.97)">
                <path d="M1657.12,798.45L1781.55,664.459L2009.01,909.402L1958.96,909.402L1958.96,1120.02L1609.13,1120.02L1609.13,909.402L1554.09,909.402L1611.69,847.379L1611.69,762.572L1657.12,762.572L1657.12,798.45Z" style="fill:white;"/>
                <clipPath id="_clip2">
                    <path d="M1657.12,798.45L1781.55,664.459L2009.01,909.402L1958.96,909.402L1958.96,1120.02L1609.13,1120.02L1609.13,909.402L1554.09,909.402L1611.69,847.379L1611.69,762.572L1657.12,762.572L1657.12,798.45Z"/>
                </clipPath>
                <g clip-path="url(#_clip2)">
                    <g transform="matrix(1,0,0,1.1071,0,-119.957)">
                        <path d="M1778.33,927.708L1778.33,976.42L1727.57,976.42L1727.57,927.708L1778.33,927.708ZM1844.06,993.101L1844.06,1041.81L1793.3,1041.81L1793.3,993.101L1844.06,993.101ZM1778.19,993.455L1778.19,1042.17L1727.43,1042.17L1727.43,993.455L1778.19,993.455ZM1843.58,927.763L1843.58,976.475L1792.82,976.475L1792.82,927.763L1843.58,927.763Z" style="fill:rgb(33,70,139);"/>
                    </g>
                </g>
            </g>
        </g>
    </g>
</svg>
